HIERARCHY
ROOT Hips
{
	OFFSET 0.000000 0.000000 0.000000
	CHANNELS 6 Xposition Yposition Zposition Zrotation Yrotation Xrotation 
	JOINT LeftUpLeg_virtual
	{
		OFFSET 0.000000 0.000000 0.000000
		CHANNELS 3 Zrotation Yrotation Xrotation
		JOINT LeftUpLeg
		{
			OFFSET 10.205400 -3.823500 0.155100
			CHANNELS 3 Zrotation Yrotation Xrotation
			JOINT LeftLeg
			{
				OFFSET 0.708757 -12.982077 0.567790
				CHANNELS 3 Zrotation Yrotation Xrotation
				JOINT LeftFoot
				{
					OFFSET -0.708756 -10.717838 -2.184338
					CHANNELS 3 Zrotation Yrotation Xrotation
					JOINT LeftToeBase
					{
						OFFSET 0.108149 -7.191104 7.560241
						CHANNELS 3 Zrotation Yrotation Xrotation
						End Site
						{
							OFFSET 0.000000 0.000000 0.000000
						}
					}
				}
			}
		}
	}
	JOINT RightUpLeg_virtual
	{
		OFFSET 0.000000 0.000000 0.000000
		CHANNELS 3 Zrotation Yrotation Xrotation
		JOINT RightUpLeg
		{
			OFFSET -10.205400 -3.823500 0.005500
			CHANNELS 3 Zrotation Yrotation Xrotation
			JOINT RightLeg
			{
				OFFSET -0.708756 -12.982134 0.610632
				CHANNELS 3 Zrotation Yrotation Xrotation
				JOINT RightFoot
				{
					OFFSET 0.708754 -10.717769 -1.945823
					CHANNELS 3 Zrotation Yrotation Xrotation
					JOINT RightToeBase
					{
						OFFSET -0.108140 -7.191069 7.372968
						CHANNELS 3 Zrotation Yrotation Xrotation
						End Site
						{
							OFFSET 0.000000 0.000000 0.000000
						}
					}
				}
			}
		}
	}
	JOINT Spine_virtual
	{
		OFFSET 0.000000 0.000000 0.000000
		CHANNELS 3 Zrotation Yrotation Xrotation
		JOINT Spine
		{
			OFFSET 0.000000 6.876099 0.125700
			CHANNELS 3 Zrotation Yrotation Xrotation
			JOINT Spine1
			{
				OFFSET 0.000000 8.022060 0.146608
				CHANNELS 3 Zrotation Yrotation Xrotation
				JOINT Spine2
				{
					OFFSET 0.000000 9.168068 0.167552
					CHANNELS 3 Zrotation Yrotation Xrotation
					JOINT Neck_virtual
					{
						OFFSET 0.000000 0.000000 0.000000
						CHANNELS 3 Zrotation Yrotation Xrotation
						JOINT Neck
						{
							OFFSET 0.000000 10.314075 0.188496
							CHANNELS 3 Zrotation Yrotation Xrotation
							JOINT Head
							{
								OFFSET 0.000000 7.643700 -2.377400
								CHANNELS 3 Zrotation Yrotation Xrotation
								End Site
								{
									OFFSET 0.000000 0.000000 0.000000
								}
							}
						}
					}
					JOINT LeftShoulder_virtual
					{
						OFFSET 0.000000 0.000000 0.000000
						CHANNELS 3 Zrotation Yrotation Xrotation
						JOINT LeftShoulder
						{
							OFFSET 4.392200 8.824978 0.174984
							CHANNELS 3 Zrotation Yrotation Xrotation
							JOINT LeftArm
							{
								OFFSET 8.771219 -2.981674 -0.026999
								CHANNELS 3 Zrotation Yrotation Xrotation
								JOINT LeftForeArm
								{
									OFFSET 8.512804 0.000000 -0.000000
									CHANNELS 3 Zrotation Yrotation Xrotation
									JOINT LeftHand
									{
										OFFSET 18.484802 0.000000 -0.000000
										CHANNELS 3 Zrotation Yrotation Xrotation
										End Site
										{
											OFFSET 0.000000 0.000000 0.000000
										}
									}
								}
							}
						}
					}
					JOINT RightShoulder_virtual
					{
						OFFSET 0.000000 0.000000 0.000000
						CHANNELS 3 Zrotation Yrotation Xrotation
						JOINT RightShoulder
						{
							OFFSET -4.392200 8.824993 0.141379
							CHANNELS 3 Zrotation Yrotation Xrotation
							JOINT RightArm
							{
								OFFSET -8.771282 -2.981682 -0.094208
								CHANNELS 3 Zrotation Yrotation Xrotation
								JOINT RightForeArm
								{
									OFFSET -8.494598 0.000000 0.000000
									CHANNELS 3 Zrotation Yrotation Xrotation
									JOINT RightHand
									{
										OFFSET -18.483803 0.000000 0.000001
										CHANNELS 3 Zrotation Yrotation Xrotation
										End Site
										{
											OFFSET 0.000000 0.000000 0.000000
										}
									}
								}
							}
						}
					}
				}
			}
		}
	}
}
MOTION
Frames: 13
Frame Time: 0.033333
1.648897 36.338699 -10.775586 179.850246 1.556281 -179.538571 -2.519936 -4.213186 7.600053 -4.439386 8.826590 -19.137522 8.799881 8.101446 23.881729 -2.732218 -4.890242 6.544262 0.000000 0.000000 0.000000 1.345652 -1.706573 6.707217 5.967481 2.732475 -11.407647 -9.304142 2.973489 17.277920 6.406638 2.447911 10.426061 0.000000 0.000000 0.000000 -1.264987 -0.011178 -5.036352 0.966785 -2.990727 -11.326311 -1.236790 -2.199518 8.536305 -0.016854 -0.200485 0.083139 -1.573244 0.075258 9.448008 -4.500398 0.934409 8.170712 0.000000 0.000000 0.000000 0.160035 0.617197 7.191381 -13.668307 -2.122454 2.559996 -53.243493 19.735644 18.846124 0.095366 -50.058610 5.225325 0.000000 0.000000 0.000000 -3.677125 1.868473 6.577642 24.365552 5.483690 4.211921 53.392258 -21.705131 21.226092 -7.396612 39.024877 -5.032698 0.000000 0.000000 0.000000 
1.670436 36.354595 -10.703992 179.850451 1.627654 -179.387419 -2.540298 -4.172485 7.702584 -4.705682 9.050713 -19.090744 8.501716 8.343726 24.084698 -3.333445 -5.256240 6.711030 0.000000 0.000000 0.000000 1.388715 -1.806996 6.932100 5.801595 2.762233 -11.228556 -9.469320 3.332275 17.677132 6.279510 2.259436 10.999603 0.000000 0.000000 0.000000 -1.218960 -0.169295 -5.090596 0.982532 -2.838243 -11.418200 -1.195037 -2.073530 8.419310 -0.036433 -0.077238 0.163368 -1.607360 0.186400 9.566389 -4.555244 0.828977 8.255791 0.000000 0.000000 0.000000 0.138304 0.528458 7.320234 -13.718351 -2.313871 2.545362 -53.223399 19.726152 19.040327 0.187732 -49.931941 5.136232 0.000000 0.000000 0.000000 -3.718734 1.789061 6.619549 24.258605 5.535156 4.200528 53.345137 -21.481531 21.213442 -7.308109 39.225093 -4.937118 0.000000 0.000000 0.000000 
1.689265 36.359386 -10.606358 179.857090 1.787143 -179.412786 -2.531725 -4.190655 7.681530 -4.679296 9.208580 -19.188592 8.524652 8.461681 24.071313 -3.550992 -5.118272 6.743655 0.000000 0.000000 0.000000 1.403067 -1.833634 6.892056 5.777913 2.738255 -11.579713 -9.405222 3.395478 17.978912 6.348134 2.233103 11.013902 0.000000 0.000000 0.000000 -1.246443 -0.104531 -5.130229 0.961660 -2.758504 -11.365821 -1.226889 -2.167828 8.572322 0.034884 -0.076031 0.071427 -1.446082 0.079524 9.526897 -4.470490 0.763818 8.164485 0.000000 0.000000 0.000000 0.245535 0.669831 7.407636 -13.781155 -2.437496 2.605004 -53.223399 19.730378 19.267789 0.430356 -50.006646 4.891021 0.000000 0.000000 0.000000 -3.639112 1.804242 6.694270 24.131144 5.466988 4.067852 53.326292 -21.107453 21.198995 -7.514564 39.576329 -5.181081 0.000000 0.000000 0.000000 
1.709183 36.362793 -10.499385 179.815522 1.903935 -179.475132 -2.577157 -4.339927 7.747793 -4.650618 9.312663 -19.261890 8.568822 8.650734 24.047327 -3.791829 -4.877917 6.785971 0.000000 0.000000 0.000000 1.353467 -1.955657 6.904531 5.747437 2.736180 -12.138445 -9.295808 3.561015 18.386258 6.373112 2.143048 10.956397 0.000000 0.000000 0.000000 -1.264280 -0.159088 -4.893717 0.874372 -2.644471 -11.488697 -1.112140 -2.120340 8.513014 -0.029507 -0.069210 0.159113 -1.486387 0.045405 9.638587 -4.376646 0.666276 8.277931 0.000000 0.000000 0.000000 0.184462 0.471251 7.615094 -13.644690 -2.669587 2.470397 -53.119836 19.792874 19.617435 0.383905 -49.939126 4.888302 0.000000 0.000000 0.000000 -3.620478 1.710469 6.833976 24.086018 5.368171 3.946148 53.411167 -20.525425 21.292947 -7.674125 39.798717 -5.407657 0.000000 0.000000 0.000000 
1.724370 36.368206 -10.377403 179.820603 2.292094 -179.512302 -2.562331 -4.375845 7.890713 -4.671630 9.505280 -19.417138 8.569184 8.864675 23.932030 -4.041788 -4.589148 6.767288 0.000000 0.000000 0.000000 1.351911 -2.058263 6.962674 5.693692 2.854796 -12.828542 -9.127793 3.862418 18.900397 6.394111 2.074039 11.034165 0.000000 0.000000 0.000000 -1.259945 -0.176247 -4.708158 0.777153 -2.432906 -11.518435 -1.118844 -2.176555 8.664406 0.008057 -0.058662 0.155435 -1.399313 -0.094052 9.692978 -4.131469 0.324018 8.277552 0.000000 0.000000 0.000000 0.257064 0.508597 7.704203 -13.527513 -2.981157 2.597058 -52.992351 19.572146 19.714267 0.191171 -49.858738 5.054518 0.000000 0.000000 0.000000 -3.511511 1.739367 6.988933 23.995793 5.330858 3.698112 53.276712 -20.102334 21.650030 -7.809205 40.054866 -5.637348 0.000000 0.000000 0.000000 
1.751596 36.374725 -10.220323 179.802722 2.621843 -179.547833 -2.553014 -4.528266 8.070778 -4.715195 9.428627 -19.598393 8.564618 9.108812 23.746978 -4.150713 -4.212530 6.773931 0.000000 0.000000 0.000000 1.337455 -2.225152 7.048764 5.613869 2.858410 -13.609592 -8.900475 4.087743 19.389582 6.360555 1.977703 11.086949 0.000000 0.000000 0.000000 -1.241164 -0.242442 -4.457626 0.698971 -2.079206 -11.465129 -1.124203 -2.230194 8.751725 0.010916 0.015378 0.157099 -1.366226 -0.153265 9.849766 -3.979336 0.034108 8.460654 0.000000 0.000000 0.000000 0.241079 0.464028 7.934439 -13.294219 -3.529826 2.599205 -52.758792 19.324709 19.923003 0.137290 -49.767910 5.073561 0.000000 0.000000 0.000000 -3.612992 1.687869 7.217920 23.978499 5.291895 3.388461 53.268485 -19.571072 21.930984 -7.932625 40.189024 -5.920089 0.000000 0.000000 0.000000 
1.794095 36.387825 -10.021092 179.793843 3.030988 -179.579197 -2.511793 -4.442382 8.232557 -4.744922 9.044631 -19.811537 8.578575 9.310560 23.524358 -4.074158 -3.747004 6.744456 0.000000 0.000000 0.000000 1.371693 -2.161346 7.123401 5.477252 2.792062 -14.425730 -8.574271 4.261162 19.867834 6.319256 1.925739 11.343778 0.000000 0.000000 0.000000 -1.212629 -0.160708 -4.247621 0.663964 -1.753674 -11.299453 -1.160919 -2.137979 8.904666 0.016448 -0.007346 0.161709 -1.351604 -0.010734 9.994134 -3.935839 -0.382424 8.707153 0.000000 0.000000 0.000000 0.187104 0.415771 8.130767 -12.941503 -4.139582 2.743772 -52.555570 18.922926 20.004596 0.187378 -49.668350 4.985136 0.000000 0.000000 0.000000 -3.572032 1.579703 7.413797 23.938189 5.242921 3.102781 53.026075 -19.018952 22.158575 -8.113787 40.406040 -6.266563 0.000000 0.000000 0.000000 
1.842863 36.405098 -9.772599 179.759391 3.509660 -179.593704 -2.483836 -4.311916 8.299644 -4.757514 8.527002 -20.081991 8.626331 9.372920 23.323638 -3.775410 -3.186831 6.792894 0.000000 0.000000 0.000000 1.442207 -1.990788 7.152032 5.311574 2.637666 -15.268849 -8.140713 4.356012 20.354684 6.194456 1.901921 11.646990 0.000000 0.000000 0.000000 -1.192846 -0.146375 -4.170319 0.692212 -1.401083 -10.967149 -1.189023 -2.135095 9.145965 0.008801 0.007717 0.112452 -1.469398 -0.123498 10.286693 -3.946114 -0.729559 9.030199 0.000000 0.000000 0.000000 0.143462 0.392469 8.396276 -12.451738 -4.881838 2.898495 -52.359899 18.383881 19.922847 0.020010 -49.486145 5.141780 0.000000 0.000000 0.000000 -3.699130 1.626572 7.685745 23.953473 5.329310 2.871182 52.814687 -18.566667 22.307164 -8.376623 40.818713 -6.625036 0.000000 0.000000 0.000000 
1.900984 36.422577 -9.475904 179.791957 4.144339 -179.623785 -2.403659 -3.999598 8.290341 -4.710929 7.998162 -20.423131 8.691555 9.144923 23.165333 -3.320236 -2.595407 6.867859 0.000000 0.000000 0.000000 1.615978 -1.657775 7.097423 5.107826 2.478636 -16.143371 -7.609807 4.415604 20.892818 5.970000 1.936174 12.016793 0.000000 0.000000 0.000000 -1.184199 0.253441 -4.162929 0.789672 -1.049646 -10.423264 -1.217761 -2.162584 9.470435 0.033982 0.020306 0.096905 -1.485792 -0.178637 10.689494 -3.959660 -1.329594 9.511803 0.000000 0.000000 0.000000 0.080389 0.308089 8.739722 -11.929399 -5.948347 2.991213 -52.310780 17.838181 19.637793 -0.209623 -49.245671 5.327620 0.000000 0.000000 0.000000 -3.824492 1.419035 7.984160 23.948545 5.334043 2.486154 52.268699 -18.257917 22.502495 -8.379433 41.636270 -7.028666 0.000000 0.000000 0.000000 
1.971644 36.428013 -9.118154 179.773270 4.927062 -179.696594 -2.440588 -3.673518 8.246875 -4.686219 7.507429 -20.995218 8.812088 8.770187 23.112431 -2.928625 -2.195646 6.978328 0.000000 0.000000 0.000000 1.787309 -1.326246 7.020253 4.889337 2.240777 -17.192233 -6.980916 4.455898 21.569222 5.717860 2.083895 12.328326 0.000000 0.000000 0.000000 -1.247668 0.692915 -4.173171 0.935728 -0.806963 -9.710108 -1.281934 -2.304622 9.843920 0.079265 0.109003 0.083395 -1.555873 -0.234287 11.194620 -4.077678 -1.806795 10.143884 0.000000 0.000000 0.000000 0.043486 0.221624 8.929572 -11.598752 -6.902926 3.166040 -52.560430 17.259736 19.024899 -0.367662 -48.967737 5.470804 0.000000 0.000000 0.000000 -3.907737 1.434207 8.352367 23.974698 5.433703 2.197253 51.603988 -17.909772 22.773927 -8.461527 42.609497 -7.387101 0.000000 0.000000 0.000000 
2.039907 36.417831 -8.700855 179.792108 5.554075 -179.780264 -2.420134 -3.311658 8.284450 -4.693237 7.044109 -21.874161 8.962608 7.956593 23.076332 -2.514849 -1.735862 7.266693 0.000000 0.000000 0.000000 2.007737 -0.964855 7.028359 4.657766 2.029398 -18.598699 -6.306022 4.418216 22.440090 5.386895 2.249582 12.590271 0.000000 0.000000 0.000000 -1.227129 0.901353 -4.074373 1.140648 -0.382247 -8.815480 -1.377151 -2.270356 10.258436 0.022904 -0.014707 0.034884 -1.593557 -0.347061 11.733182 -4.103950 -2.235397 10.804470 0.000000 0.000000 0.000000 -0.016016 0.239395 9.234802 -11.312037 -7.898584 3.309910 -52.890461 16.618660 18.103015 -0.422804 -48.672369 5.468182 0.000000 0.000000 0.000000 -3.941338 1.387101 8.815762 24.121774 5.593731 1.817914 51.015998 -17.405702 23.037356 -8.457124 43.697914 -7.699036 0.000000 0.000000 0.000000 
2.132478 36.385975 -8.195951 179.939503 5.883339 -179.812871 -2.312420 -3.001120 8.458586 -4.848507 6.710741 -23.201604 9.164519 6.405856 23.171126 -2.115722 -1.270547 7.871980 0.000000 0.000000 0.000000 2.345052 -0.731388 7.191697 4.411471 1.775157 -20.440972 -5.658469 4.193016 23.497977 4.924860 2.315652 12.869979 0.000000 0.000000 0.000000 -1.103144 1.152319 -3.745578 1.469572 0.029519 -7.780234 -1.484729 -2.286924 10.650589 -0.001283 -0.006122 0.105512 -1.617931 -0.598969 12.220819 -4.128129 -2.714474 11.558618 0.000000 0.000000 0.000000 -0.070378 0.077343 9.393580 -11.047349 -9.031454 3.382471 -53.183032 16.126719 16.832632 -0.628673 -48.936612 5.584565 0.000000 0.000000 0.000000 -3.953349 1.142712 9.027439 24.270114 5.621379 1.396977 50.361218 -16.593424 23.407676 -8.344350 44.672890 -7.899012 0.000000 0.000000 0.000000 
2.248838 36.333084 -7.570438 179.995866 6.117726 -179.835056 -2.191532 -2.700639 8.672927 -5.142554 6.531838 -25.180650 9.617848 5.058182 23.505826 -2.025312 -1.025138 8.900293 0.000000 0.000000 0.000000 2.804629 -0.549774 7.501583 4.110489 1.578549 -22.723239 -4.971373 3.889274 24.757001 4.436192 2.317241 13.191003 0.000000 0.000000 0.000000 -0.941392 1.332590 -3.044407 1.840575 0.515207 -6.488308 -1.626428 -2.285250 10.951504 0.029155 0.028963 0.026354 -1.793223 -0.542105 12.695894 -4.116647 -3.236201 12.162464 0.000000 0.000000 0.000000 -0.262271 0.006085 9.642285 -10.626347 -10.016437 3.590760 -53.216777 15.570608 15.111170 -0.873724 -50.066666 5.736872 0.000000 0.000000 0.000000 -4.102634 1.054093 9.381729 24.299337 5.716804 0.833961 49.632522 -15.517271 23.742503 -7.962913 45.506251 -7.688300 0.000000 0.000000 0.000000 
